M48
;Layer_Color=9474304
;FILE_FORMAT=4:4
METRIC,LZ
;TYPE=PLATED
T02F00S00C0.6000
T03F00S00C0.8000
T04F00S00C0.8600
T05F00S00C2.8000
T06F00S00C3.7000
%
T02
X0026975Y000875
X0035975
X0061725
X0070725
X0096475
X0105475
X0131225
X0140225
X0165975
X0174975
X01901Y0017975
Y0026975
X0174975Y002075
X0165975
X0140225
X0131225
X0105475
X0096475
X0070725
X0061725
X0035975
X0026975
T03
X0039435Y000875
X0041975
X0074185
X0076725
X0108935
X0111475
X0143685
X0146225
X0178435
X0180975
X0194375Y002215
X0196915
X0180975Y002075
X0178435
X0146225
X0143685
X0111475
X0108935
X0076725
X0074185
X0041975
X0039435
T04
X0028205Y0051675
X0030745
X0033285
X0035825
X0038365
X0040905
X0043445
Y0059645
X0040905
X0038365
X0035825
X0033285
X0030745
X0028205
X0096115
X0098655
X0101195
Y0051675
X0098655
X0096115
X0103735
X0106275
X0108815
X0111355
Y0059645
X0108815
X0106275
X0103735
X016069Y0060495
X016323
X016577
X016831
X017085
X017339
X017593
Y0052525
X017339
X017085
X016831
X016577
X016323
X016069
X016044Y01102
X016298
X016552
X016806
X01706
X017314
X017568
Y011817
X017314
X01706
X016806
X016552
X016298
X016044
X0111355Y0118645
X0108815
X0106275
X0103735
Y0110675
X0106275
X0108815
X0111355
X0101195
X0098655
X0096115
Y0118645
X0098655
X0101195
X0043445
X0040905
X0038365
X0035825
X0033285
X0030745
X0028205
Y0110675
X0030745
X0033285
X0035825
X0038365
X0040905
X0043445
T05
X0020175Y000875
X0054925
X0089675
X0124425
X0159175
X019455Y0039225
X0208Y0042915
Y0033025
X017655Y0034175
Y00434
X016125Y00402
X0159175Y002075
X0143075Y0035875
Y0045825
X01291Y0038525
X0111275Y0042825
X01111Y00335
X0124425Y002075
X0089675
X0079425Y003505
Y0045425
X0065075Y004005
X0096925Y004045
X00482Y0036175
X00481Y0045575
X003545Y00431
X0054925Y002075
X0020175
X0017725Y0038275
Y0048225
X00061Y00427528
Y0032075
Y00534305
Y00641083
Y00747861
Y00854639
X0017475Y007635
Y00668
X0035625Y0071375
X004965Y0068125
X0049225Y00789
X0066475Y0073525
X0079425Y007525
Y00655
X009755Y0070325
X0110975Y0066475
X01112Y00757
X0128975Y00705
X0143075Y006625
Y0075875
X015995Y0071175
X017685Y0067925
Y0077675
X019455Y00724
X0208Y00745875
Y0085145
Y006403
Y00534725
Y00957025
Y010626
Y01168175
Y0127375
X0195175Y0127625
X018495
X0185625Y01112
X019635Y011085
X01807Y01019
X016455Y01015
X0150775Y0101275
X01504Y0117525
X0157375Y0127625
X01735Y01277
X013695Y01256
X011865Y0129175
Y0119925
X0118675Y0104275
X011875Y0094975
X010535Y01012
X0104575Y012595
X013635Y00998
X0086625Y009605
Y0105775
Y0120075
X0086375Y01293
X0072125Y01259
X0071975Y010045
X005115Y0104875
X0050825Y00956
X0038425Y0100025
X0038025Y01249
X0051025Y01206
X0017725Y01197
X00061Y01174972
Y01068194
Y00961416
X0018125Y00954
Y0106025
X00061Y0128275
X0017725Y01297
X0051025Y0130075
T06
X0005Y0005
X0209
X0005Y014525
X0209
M30
