G04*
G04 #@! TF.GenerationSoftware,Altium Limited,Altium Designer,24.3.1 (35)*
G04*
G04 Layer_Color=128*
%FSLAX44Y44*%
%MOMM*%
G71*
G04*
G04 #@! TF.SameCoordinates,19752D80-6C45-4E96-A252-4C1BB4621B5E*
G04*
G04*
G04 #@! TF.FilePolarity,Positive*
G04*
G01*
G75*
%ADD34C,0.1270*%
D34*
X1963750Y140250D02*
X1968750D01*
X1966250Y137750D02*
Y142750D01*
X1963750Y78750D02*
X1968750D01*
X1966250Y76250D02*
Y81250D01*
X2002250Y110250D02*
X2007250D01*
X2004750Y107750D02*
Y112750D01*
X780250Y454250D02*
X808250D01*
X794250Y440250D02*
Y468250D01*
X780250Y350500D02*
X808250D01*
X794250Y336500D02*
Y364500D01*
X780250Y655000D02*
X808250D01*
X794250Y641000D02*
Y669000D01*
X780250Y752500D02*
X808250D01*
X794250Y738500D02*
Y766500D01*
X614250Y207500D02*
X620250D01*
X617250Y204500D02*
Y210500D01*
X704250Y207500D02*
X710250D01*
X707250Y204500D02*
Y210500D01*
X535250Y207500D02*
X563250D01*
X549250Y193500D02*
Y221500D01*
X1085350Y207500D02*
X1093350D01*
X1089350Y203500D02*
Y211500D01*
X1110750Y207500D02*
X1118750D01*
X1114750Y203500D02*
Y211500D01*
X415750Y207500D02*
X423750D01*
X419750Y203500D02*
Y211500D01*
X390350Y207500D02*
X398350D01*
X394350Y203500D02*
Y211500D01*
X737850Y207500D02*
X745850D01*
X741850Y203500D02*
Y211500D01*
X763250Y207500D02*
X771250D01*
X767250Y203500D02*
Y211500D01*
X1432850Y207500D02*
X1440850D01*
X1436850Y203500D02*
Y211500D01*
X1458250Y207500D02*
X1466250D01*
X1462250Y203500D02*
Y211500D01*
X1780350Y207500D02*
X1788350D01*
X1784350Y203500D02*
Y211500D01*
X1805750Y207500D02*
X1813750D01*
X1809750Y203500D02*
Y211500D01*
X961750Y207500D02*
X967750D01*
X964750Y204500D02*
Y210500D01*
X1051750Y207500D02*
X1057750D01*
X1054750Y204500D02*
Y210500D01*
X535250Y87500D02*
X563250D01*
X549250Y73500D02*
Y101500D01*
X163250Y1297000D02*
X191250D01*
X177250Y1283000D02*
Y1311000D01*
X163250Y1197000D02*
X191250D01*
X177250Y1183000D02*
Y1211000D01*
X1937750Y1276250D02*
X1965750D01*
X1951750Y1262250D02*
Y1290250D01*
X1842250Y1112000D02*
X1870250D01*
X1856250Y1098000D02*
Y1126000D01*
X1949500Y1108500D02*
X1977500D01*
X1963500Y1094500D02*
Y1122500D01*
X160750Y668000D02*
X188750D01*
X174750Y654000D02*
Y682000D01*
X852250Y1200750D02*
X880250D01*
X866250Y1186750D02*
Y1214750D01*
X849750Y1293000D02*
X877750D01*
X863750Y1279000D02*
Y1307000D01*
X1031750Y1259500D02*
X1059750D01*
X1045750Y1245500D02*
Y1273500D01*
X1172500Y1291750D02*
X1200500D01*
X1186500Y1277750D02*
Y1305750D01*
X1172500Y1199250D02*
X1200500D01*
X1186500Y1185250D02*
Y1213250D01*
X707250Y1259000D02*
X735250D01*
X721250Y1245000D02*
Y1273000D01*
X1835500Y1276250D02*
X1863500D01*
X1849500Y1262250D02*
Y1290250D01*
X1559750Y1276250D02*
X1587750D01*
X1573750Y1262250D02*
Y1290250D01*
X1721000Y1277000D02*
X1749000D01*
X1735000Y1263000D02*
Y1291000D01*
X366250Y1249000D02*
X394250D01*
X380250Y1235000D02*
Y1263000D01*
X496250Y1300750D02*
X524250D01*
X510250Y1286750D02*
Y1314750D01*
X705750Y1004500D02*
X733750D01*
X719750Y990500D02*
Y1018500D01*
X167250Y1060250D02*
X195250D01*
X181250Y1046250D02*
Y1074250D01*
X167250Y954000D02*
X195250D01*
X181250Y940000D02*
Y968000D01*
X370250Y1000250D02*
X398250D01*
X384250Y986250D02*
Y1014250D01*
X494250Y956000D02*
X522250D01*
X508250Y942000D02*
Y970000D01*
X497500Y1048750D02*
X525500D01*
X511500Y1034750D02*
Y1062750D01*
X1172750Y1042750D02*
X1200750D01*
X1186750Y1028750D02*
Y1056750D01*
X1349500Y998000D02*
X1377500D01*
X1363500Y984000D02*
Y1012000D01*
X1493750Y1012750D02*
X1521750D01*
X1507750Y998750D02*
Y1026750D01*
X852250Y1057750D02*
X880250D01*
X866250Y1043750D02*
Y1071750D01*
X961500Y703250D02*
X989500D01*
X975500Y689250D02*
Y717250D01*
X1098000Y757000D02*
X1126000D01*
X1112000Y743000D02*
Y771000D01*
X1095750Y664750D02*
X1123750D01*
X1109750Y650750D02*
Y678750D01*
X1275750Y705000D02*
X1303750D01*
X1289750Y691000D02*
Y719000D01*
X1416750Y662500D02*
X1444750D01*
X1430750Y648500D02*
Y676500D01*
X1416750Y758750D02*
X1444750D01*
X1430750Y744750D02*
Y772750D01*
X1585500Y711750D02*
X1613500D01*
X1599500Y697750D02*
Y725750D01*
X1754500Y776750D02*
X1782500D01*
X1768500Y762750D02*
Y790750D01*
X1754500Y679250D02*
X1782500D01*
X1768500Y665250D02*
Y693250D01*
X650750Y735250D02*
X678750D01*
X664750Y721250D02*
Y749250D01*
X482500Y681250D02*
X510500D01*
X496500Y667250D02*
Y695250D01*
X478250Y789000D02*
X506250D01*
X492250Y775000D02*
Y803000D01*
X342250Y713750D02*
X370250D01*
X356250Y699750D02*
Y727750D01*
X160750Y763500D02*
X188750D01*
X174750Y749500D02*
Y777500D01*
X163250Y482250D02*
X191250D01*
X177250Y468250D02*
Y496250D01*
X163250Y382750D02*
X191250D01*
X177250Y368750D02*
Y396750D01*
X340500Y431000D02*
X368500D01*
X354500Y417000D02*
Y445000D01*
X468000Y361750D02*
X496000D01*
X482000Y347750D02*
Y375750D01*
X467000Y455750D02*
X495000D01*
X481000Y441750D02*
Y469750D01*
X636750Y400500D02*
X664750D01*
X650750Y386500D02*
Y414500D01*
X1751500Y434000D02*
X1779500D01*
X1765500Y420000D02*
Y448000D01*
X955250Y404500D02*
X983250D01*
X969250Y390500D02*
Y418500D01*
X1097000Y335000D02*
X1125000D01*
X1111000Y321000D02*
Y349000D01*
X1098750Y428250D02*
X1126750D01*
X1112750Y414250D02*
Y442250D01*
X47000Y1282750D02*
X75000D01*
X61000Y1268750D02*
Y1296750D01*
X47000Y1174972D02*
X75000D01*
X61000Y1160972D02*
Y1188972D01*
X47000Y1068194D02*
X75000D01*
X61000Y1054194D02*
Y1082194D01*
X47000Y961416D02*
X75000D01*
X61000Y947417D02*
Y975416D01*
X47000Y854639D02*
X75000D01*
X61000Y840639D02*
Y868639D01*
X47000Y747861D02*
X75000D01*
X61000Y733861D02*
Y761861D01*
X47000Y641083D02*
X75000D01*
X61000Y627083D02*
Y655083D01*
X47000Y534305D02*
X75000D01*
X61000Y520305D02*
Y548306D01*
X47000Y427528D02*
X75000D01*
X61000Y413528D02*
Y441528D01*
X47000Y320750D02*
X75000D01*
X61000Y306750D02*
Y334750D01*
X2066000Y1273750D02*
X2094000D01*
X2080000Y1259750D02*
Y1287750D01*
X2066000Y1168175D02*
X2094000D01*
X2080000Y1154175D02*
Y1182175D01*
X2066000Y1062600D02*
X2094000D01*
X2080000Y1048600D02*
Y1076600D01*
X2066000Y957025D02*
X2094000D01*
X2080000Y943025D02*
Y971025D01*
X2066000Y851450D02*
X2094000D01*
X2080000Y837450D02*
Y865450D01*
X2066000Y745875D02*
X2094000D01*
X2080000Y731875D02*
Y759875D01*
X2066000Y640300D02*
X2094000D01*
X2080000Y626300D02*
Y654300D01*
X2066000Y534725D02*
X2094000D01*
X2080000Y520725D02*
Y548725D01*
X2066000Y429150D02*
X2094000D01*
X2080000Y415150D02*
Y443150D01*
X2066000Y330250D02*
X2094000D01*
X2080000Y316250D02*
Y344250D01*
X882750Y87500D02*
X910750D01*
X896750Y73500D02*
Y101500D01*
X1230250Y207500D02*
X1258250D01*
X1244250Y193500D02*
Y221500D01*
X1230250Y87500D02*
X1258250D01*
X1244250Y73500D02*
Y101500D01*
X187750Y87500D02*
X215750D01*
X201750Y73500D02*
Y101500D01*
X187750Y207500D02*
X215750D01*
X201750Y193500D02*
Y221500D01*
X1277000Y385250D02*
X1305000D01*
X1291000Y371250D02*
Y399250D01*
X1577750Y207500D02*
X1605750D01*
X1591750Y193500D02*
Y221500D01*
X496250Y1206000D02*
X524250D01*
X510250Y1192000D02*
Y1220000D01*
X1355500Y1256000D02*
X1383500D01*
X1369500Y1242000D02*
Y1270000D01*
X852250Y960500D02*
X880250D01*
X866250Y946500D02*
Y974500D01*
X1039500Y1012000D02*
X1067500D01*
X1053500Y998000D02*
Y1026000D01*
X1173500Y949750D02*
X1201500D01*
X1187500Y935750D02*
Y963750D01*
X1490000Y1175250D02*
X1518000D01*
X1504000Y1161250D02*
Y1189250D01*
X1631500Y1015000D02*
X1659500D01*
X1645500Y1001000D02*
Y1029000D01*
X1793000Y1019000D02*
X1821000D01*
X1807000Y1005000D02*
Y1033000D01*
X1931500Y724000D02*
X1959500D01*
X1945500Y710000D02*
Y738000D01*
X1416750Y458250D02*
X1444750D01*
X1430750Y444250D02*
Y472250D01*
X1416750Y358750D02*
X1444750D01*
X1430750Y344750D02*
Y372750D01*
X1598500Y402000D02*
X1626500D01*
X1612500Y388000D02*
Y416000D01*
X1751500Y341750D02*
X1779500D01*
X1765500Y327750D02*
Y355750D01*
X1931500Y392250D02*
X1959500D01*
X1945500Y378250D02*
Y406250D01*
X1577750Y87500D02*
X1605750D01*
X1591750Y73500D02*
Y101500D01*
X882750Y207500D02*
X910750D01*
X896750Y193500D02*
Y221500D01*
X31500Y1452500D02*
X68500D01*
X50000Y1434000D02*
Y1471000D01*
X2071500Y1452500D02*
X2108500D01*
X2090000Y1434000D02*
Y1471000D01*
X2071500Y50000D02*
X2108500D01*
X2090000Y31500D02*
Y68500D01*
X31500Y50000D02*
X68500D01*
X50000Y31500D02*
Y68500D01*
X277750Y1106750D02*
X286350D01*
X282050Y1102450D02*
Y1111050D01*
X303150Y1106750D02*
X311750D01*
X307450Y1102450D02*
Y1111050D01*
X328550Y1106750D02*
X337150D01*
X332850Y1102450D02*
Y1111050D01*
X353950Y1106750D02*
X362550D01*
X358250Y1102450D02*
Y1111050D01*
X379350Y1106750D02*
X387950D01*
X383650Y1102450D02*
Y1111050D01*
X404750Y1106750D02*
X413350D01*
X409050Y1102450D02*
Y1111050D01*
X430150Y1106750D02*
X438750D01*
X434450Y1102450D02*
Y1111050D01*
X277750Y1186450D02*
X286350D01*
X282050Y1182150D02*
Y1190750D01*
X303150Y1186450D02*
X311750D01*
X307450Y1182150D02*
Y1190750D01*
X328550Y1186450D02*
X337150D01*
X332850Y1182150D02*
Y1190750D01*
X353950Y1186450D02*
X362550D01*
X358250Y1182150D02*
Y1190750D01*
X379350Y1186450D02*
X387950D01*
X383650Y1182150D02*
Y1190750D01*
X404750Y1186450D02*
X413350D01*
X409050Y1182150D02*
Y1190750D01*
X430150Y1186450D02*
X438750D01*
X434450Y1182150D02*
Y1190750D01*
X1109250Y1186450D02*
X1117850D01*
X1113550Y1182150D02*
Y1190750D01*
X1083850Y1186450D02*
X1092450D01*
X1088150Y1182150D02*
Y1190750D01*
X1058450Y1186450D02*
X1067050D01*
X1062750Y1182150D02*
Y1190750D01*
X1033050Y1186450D02*
X1041650D01*
X1037350Y1182150D02*
Y1190750D01*
X1007650Y1186450D02*
X1016250D01*
X1011950Y1182150D02*
Y1190750D01*
X982250Y1186450D02*
X990850D01*
X986550Y1182150D02*
Y1190750D01*
X956850Y1186450D02*
X965450D01*
X961150Y1182150D02*
Y1190750D01*
X1109250Y1106750D02*
X1117850D01*
X1113550Y1102450D02*
Y1111050D01*
X1083850Y1106750D02*
X1092450D01*
X1088150Y1102450D02*
Y1111050D01*
X1058450Y1106750D02*
X1067050D01*
X1062750Y1102450D02*
Y1111050D01*
X1033050Y1106750D02*
X1041650D01*
X1037350Y1102450D02*
Y1111050D01*
X1007650Y1106750D02*
X1016250D01*
X1011950Y1102450D02*
Y1111050D01*
X982250Y1106750D02*
X990850D01*
X986550Y1102450D02*
Y1111050D01*
X956850Y1106750D02*
X965450D01*
X961150Y1102450D02*
Y1111050D01*
X1600100Y1102000D02*
X1608700D01*
X1604400Y1097700D02*
Y1106300D01*
X1625500Y1102000D02*
X1634100D01*
X1629800Y1097700D02*
Y1106300D01*
X1650900Y1102000D02*
X1659500D01*
X1655200Y1097700D02*
Y1106300D01*
X1676300Y1102000D02*
X1684900D01*
X1680600Y1097700D02*
Y1106300D01*
X1701700Y1102000D02*
X1710300D01*
X1706000Y1097700D02*
Y1106300D01*
X1727100Y1102000D02*
X1735700D01*
X1731400Y1097700D02*
Y1106300D01*
X1752500Y1102000D02*
X1761100D01*
X1756800Y1097700D02*
Y1106300D01*
X1600100Y1181700D02*
X1608700D01*
X1604400Y1177400D02*
Y1186000D01*
X1625500Y1181700D02*
X1634100D01*
X1629800Y1177400D02*
Y1186000D01*
X1650900Y1181700D02*
X1659500D01*
X1655200Y1177400D02*
Y1186000D01*
X1676300Y1181700D02*
X1684900D01*
X1680600Y1177400D02*
Y1186000D01*
X1701700Y1181700D02*
X1710300D01*
X1706000Y1177400D02*
Y1186000D01*
X1727100Y1181700D02*
X1735700D01*
X1731400Y1177400D02*
Y1186000D01*
X1752500Y1181700D02*
X1761100D01*
X1756800Y1177400D02*
Y1186000D01*
X430150Y596450D02*
X438750D01*
X434450Y592150D02*
Y600750D01*
X404750Y596450D02*
X413350D01*
X409050Y592150D02*
Y600750D01*
X379350Y596450D02*
X387950D01*
X383650Y592150D02*
Y600750D01*
X353950Y596450D02*
X362550D01*
X358250Y592150D02*
Y600750D01*
X328550Y596450D02*
X337150D01*
X332850Y592150D02*
Y600750D01*
X303150Y596450D02*
X311750D01*
X307450Y592150D02*
Y600750D01*
X277750Y596450D02*
X286350D01*
X282050Y592150D02*
Y600750D01*
X430150Y516750D02*
X438750D01*
X434450Y512450D02*
Y521050D01*
X404750Y516750D02*
X413350D01*
X409050Y512450D02*
Y521050D01*
X379350Y516750D02*
X387950D01*
X383650Y512450D02*
Y521050D01*
X353950Y516750D02*
X362550D01*
X358250Y512450D02*
Y521050D01*
X328550Y516750D02*
X337150D01*
X332850Y512450D02*
Y521050D01*
X303150Y516750D02*
X311750D01*
X307450Y512450D02*
Y521050D01*
X277750Y516750D02*
X286350D01*
X282050Y512450D02*
Y521050D01*
X956850Y516750D02*
X965450D01*
X961150Y512450D02*
Y521050D01*
X982250Y516750D02*
X990850D01*
X986550Y512450D02*
Y521050D01*
X1007650Y516750D02*
X1016250D01*
X1011950Y512450D02*
Y521050D01*
X1033050Y516750D02*
X1041650D01*
X1037350Y512450D02*
Y521050D01*
X1058450Y516750D02*
X1067050D01*
X1062750Y512450D02*
Y521050D01*
X1083850Y516750D02*
X1092450D01*
X1088150Y512450D02*
Y521050D01*
X1109250Y516750D02*
X1117850D01*
X1113550Y512450D02*
Y521050D01*
X956850Y596450D02*
X965450D01*
X961150Y592150D02*
Y600750D01*
X982250Y596450D02*
X990850D01*
X986550Y592150D02*
Y600750D01*
X1007650Y596450D02*
X1016250D01*
X1011950Y592150D02*
Y600750D01*
X1033050Y596450D02*
X1041650D01*
X1037350Y592150D02*
Y600750D01*
X1058450Y596450D02*
X1067050D01*
X1062750Y592150D02*
Y600750D01*
X1083850Y596450D02*
X1092450D01*
X1088150Y592150D02*
Y600750D01*
X1109250Y596450D02*
X1117850D01*
X1113550Y592150D02*
Y600750D01*
X1755000Y604950D02*
X1763600D01*
X1759300Y600650D02*
Y609250D01*
X1729600Y604950D02*
X1738200D01*
X1733900Y600650D02*
Y609250D01*
X1704200Y604950D02*
X1712800D01*
X1708500Y600650D02*
Y609250D01*
X1678800Y604950D02*
X1687400D01*
X1683100Y600650D02*
Y609250D01*
X1653400Y604950D02*
X1662000D01*
X1657700Y600650D02*
Y609250D01*
X1628000Y604950D02*
X1636600D01*
X1632300Y600650D02*
Y609250D01*
X1602600Y604950D02*
X1611200D01*
X1606900Y600650D02*
Y609250D01*
X1755000Y525250D02*
X1763600D01*
X1759300Y520950D02*
Y529550D01*
X1729600Y525250D02*
X1738200D01*
X1733900Y520950D02*
Y529550D01*
X1704200Y525250D02*
X1712800D01*
X1708500Y520950D02*
Y529550D01*
X1678800Y525250D02*
X1687400D01*
X1683100Y520950D02*
Y529550D01*
X1653400Y525250D02*
X1662000D01*
X1657700Y520950D02*
Y529550D01*
X1628000Y525250D02*
X1636600D01*
X1632300Y520950D02*
Y529550D01*
X1602600Y525250D02*
X1611200D01*
X1606900Y520950D02*
Y529550D01*
X1898000Y269750D02*
X1904000D01*
X1901000Y266750D02*
Y272750D01*
X1898000Y179750D02*
X1904000D01*
X1901000Y176750D02*
Y182750D01*
X961750Y87500D02*
X967750D01*
X964750Y84500D02*
Y90500D01*
X1051750Y87500D02*
X1057750D01*
X1054750Y84500D02*
Y90500D01*
X1399250Y207500D02*
X1405250D01*
X1402250Y204500D02*
Y210500D01*
X1309250Y207500D02*
X1315250D01*
X1312250Y204500D02*
Y210500D01*
X1309250Y87500D02*
X1315250D01*
X1312250Y84500D02*
Y90500D01*
X1399250Y87500D02*
X1405250D01*
X1402250Y84500D02*
Y90500D01*
X356750Y87500D02*
X362750D01*
X359750Y84500D02*
Y90500D01*
X266750Y87500D02*
X272750D01*
X269750Y84500D02*
Y90500D01*
X266750Y207500D02*
X272750D01*
X269750Y204500D02*
Y210500D01*
X356750Y207500D02*
X362750D01*
X359750Y204500D02*
Y210500D01*
X1746750Y207500D02*
X1752750D01*
X1749750Y204500D02*
Y210500D01*
X1656750Y207500D02*
X1662750D01*
X1659750Y204500D02*
Y210500D01*
X1656750Y87500D02*
X1662750D01*
X1659750Y84500D02*
Y90500D01*
X1746750Y87500D02*
X1752750D01*
X1749750Y84500D02*
Y90500D01*
X614250Y87500D02*
X620250D01*
X617250Y84500D02*
Y90500D01*
X704250Y87500D02*
X710250D01*
X707250Y84500D02*
Y90500D01*
X415750Y87500D02*
X423750D01*
X419750Y83500D02*
Y91500D01*
X390350Y87500D02*
X398350D01*
X394350Y83500D02*
Y91500D01*
X1432850Y87500D02*
X1440850D01*
X1436850Y83500D02*
Y91500D01*
X1458250Y87500D02*
X1466250D01*
X1462250Y83500D02*
Y91500D01*
X1085350Y87500D02*
X1093350D01*
X1089350Y83500D02*
Y91500D01*
X1110750Y87500D02*
X1118750D01*
X1114750Y83500D02*
Y91500D01*
X1780350Y87500D02*
X1788350D01*
X1784350Y83500D02*
Y91500D01*
X1805750Y87500D02*
X1813750D01*
X1809750Y83500D02*
Y91500D01*
X1965150Y221500D02*
X1973150D01*
X1969150Y217500D02*
Y225500D01*
X1939750Y221500D02*
X1947750D01*
X1943750Y217500D02*
Y225500D01*
X737850Y87500D02*
X745850D01*
X741850Y83500D02*
Y91500D01*
X763250Y87500D02*
X771250D01*
X767250Y83500D02*
Y91500D01*
M02*
