G04*
G04 #@! TF.GenerationSoftware,Altium Limited,Altium Designer,24.3.1 (35)*
G04*
G04 Layer_Color=2752767*
%FSLAX44Y44*%
%MOMM*%
G71*
G04*
G04 #@! TF.SameCoordinates,19752D80-6C45-4E96-A252-4C1BB4621B5E*
G04*
G04*
G04 #@! TF.FilePolarity,Positive*
G04*
G01*
G75*
%ADD33C,0.1693*%
%ADD34C,0.1270*%
D33*
X1971330Y140250D02*
G03*
X1971330Y140250I-5080J0D01*
G01*
Y78750D02*
G03*
X1971330Y78750I-5080J0D01*
G01*
X2009830Y110250D02*
G03*
X2009830Y110250I-5080J0D01*
G01*
D34*
X794250Y449170D02*
X789170Y459330D01*
X799330D01*
X794250Y449170D01*
Y345420D02*
X789170Y355580D01*
X799330D01*
X794250Y345420D01*
Y649920D02*
X789170Y660080D01*
X799330D01*
X794250Y649920D01*
Y747420D02*
X789170Y757580D01*
X799330D01*
X794250Y747420D01*
X612170Y202420D02*
Y212580D01*
X622330D01*
Y202420D01*
X612170D01*
X702170D02*
Y212580D01*
X712330D01*
Y202420D01*
X702170D01*
X549250D02*
X544170Y212580D01*
X554330D01*
X549250Y202420D01*
X1084270D02*
X1086810Y207500D01*
X1084270Y212580D01*
X1089350Y210040D01*
X1094430Y212580D01*
X1091890Y207500D01*
X1094430Y202420D01*
X1089350Y204960D01*
X1084270Y202420D01*
X1109670D02*
X1112210Y207500D01*
X1109670Y212580D01*
X1114750Y210040D01*
X1119830Y212580D01*
X1117290Y207500D01*
X1119830Y202420D01*
X1114750Y204960D01*
X1109670Y202420D01*
X414670D02*
X417210Y207500D01*
X414670Y212580D01*
X419750Y210040D01*
X424830Y212580D01*
X422290Y207500D01*
X424830Y202420D01*
X419750Y204960D01*
X414670Y202420D01*
X389270D02*
X391810Y207500D01*
X389270Y212580D01*
X394350Y210040D01*
X399430Y212580D01*
X396890Y207500D01*
X399430Y202420D01*
X394350Y204960D01*
X389270Y202420D01*
X736770D02*
X739310Y207500D01*
X736770Y212580D01*
X741850Y210040D01*
X746930Y212580D01*
X744390Y207500D01*
X746930Y202420D01*
X741850Y204960D01*
X736770Y202420D01*
X762170D02*
X764710Y207500D01*
X762170Y212580D01*
X767250Y210040D01*
X772330Y212580D01*
X769790Y207500D01*
X772330Y202420D01*
X767250Y204960D01*
X762170Y202420D01*
X1431770D02*
X1434310Y207500D01*
X1431770Y212580D01*
X1436850Y210040D01*
X1441930Y212580D01*
X1439390Y207500D01*
X1441930Y202420D01*
X1436850Y204960D01*
X1431770Y202420D01*
X1457170D02*
X1459710Y207500D01*
X1457170Y212580D01*
X1462250Y210040D01*
X1467330Y212580D01*
X1464790Y207500D01*
X1467330Y202420D01*
X1462250Y204960D01*
X1457170Y202420D01*
X1779270D02*
X1781810Y207500D01*
X1779270Y212580D01*
X1784350Y210040D01*
X1789430Y212580D01*
X1786890Y207500D01*
X1789430Y202420D01*
X1784350Y204960D01*
X1779270Y202420D01*
X1804670D02*
X1807210Y207500D01*
X1804670Y212580D01*
X1809750Y210040D01*
X1814830Y212580D01*
X1812290Y207500D01*
X1814830Y202420D01*
X1809750Y204960D01*
X1804670Y202420D01*
X959670D02*
Y212580D01*
X969830D01*
Y202420D01*
X959670D01*
X1049670D02*
Y212580D01*
X1059830D01*
Y202420D01*
X1049670D01*
X549250Y82420D02*
X544170Y92580D01*
X554330D01*
X549250Y82420D01*
X177250Y1291920D02*
X172170Y1302080D01*
X182330D01*
X177250Y1291920D01*
Y1191920D02*
X172170Y1202080D01*
X182330D01*
X177250Y1191920D01*
X1951750Y1271170D02*
X1946670Y1281330D01*
X1956830D01*
X1951750Y1271170D01*
X1856250Y1106920D02*
X1851170Y1117080D01*
X1861330D01*
X1856250Y1106920D01*
X1963500Y1103420D02*
X1958420Y1113580D01*
X1968580D01*
X1963500Y1103420D01*
X174750Y662920D02*
X169670Y673080D01*
X179830D01*
X174750Y662920D01*
X866250Y1195670D02*
X861170Y1205830D01*
X871330D01*
X866250Y1195670D01*
X863750Y1287920D02*
X858670Y1298080D01*
X868830D01*
X863750Y1287920D01*
X1045750Y1254420D02*
X1040670Y1264580D01*
X1050830D01*
X1045750Y1254420D01*
X1186500Y1286670D02*
X1181420Y1296830D01*
X1191580D01*
X1186500Y1286670D01*
Y1194170D02*
X1181420Y1204330D01*
X1191580D01*
X1186500Y1194170D01*
X721250Y1253920D02*
X716170Y1264080D01*
X726330D01*
X721250Y1253920D01*
X1849500Y1271170D02*
X1844420Y1281330D01*
X1854580D01*
X1849500Y1271170D01*
X1573750D02*
X1568670Y1281330D01*
X1578830D01*
X1573750Y1271170D01*
X1735000Y1271920D02*
X1729920Y1282080D01*
X1740080D01*
X1735000Y1271920D01*
X380250Y1243920D02*
X375170Y1254080D01*
X385330D01*
X380250Y1243920D01*
X510250Y1295670D02*
X505170Y1305830D01*
X515330D01*
X510250Y1295670D01*
X719750Y999420D02*
X714670Y1009580D01*
X724830D01*
X719750Y999420D01*
X181250Y1055170D02*
X176170Y1065330D01*
X186330D01*
X181250Y1055170D01*
Y948920D02*
X176170Y959080D01*
X186330D01*
X181250Y948920D01*
X384250Y995170D02*
X379170Y1005330D01*
X389330D01*
X384250Y995170D01*
X508250Y950920D02*
X503170Y961080D01*
X513330D01*
X508250Y950920D01*
X511500Y1043670D02*
X506420Y1053830D01*
X516580D01*
X511500Y1043670D01*
X1186750Y1037670D02*
X1181670Y1047830D01*
X1191830D01*
X1186750Y1037670D01*
X1363500Y992920D02*
X1358420Y1003080D01*
X1368580D01*
X1363500Y992920D01*
X1507750Y1007670D02*
X1502670Y1017830D01*
X1512830D01*
X1507750Y1007670D01*
X866250Y1052670D02*
X861170Y1062830D01*
X871330D01*
X866250Y1052670D01*
X975500Y698170D02*
X970420Y708330D01*
X980580D01*
X975500Y698170D01*
X1112000Y751920D02*
X1106920Y762080D01*
X1117080D01*
X1112000Y751920D01*
X1109750Y659670D02*
X1104670Y669830D01*
X1114830D01*
X1109750Y659670D01*
X1289750Y699920D02*
X1284670Y710080D01*
X1294830D01*
X1289750Y699920D01*
X1430750Y657420D02*
X1425670Y667580D01*
X1435830D01*
X1430750Y657420D01*
Y753670D02*
X1425670Y763830D01*
X1435830D01*
X1430750Y753670D01*
X1599500Y706670D02*
X1594420Y716830D01*
X1604580D01*
X1599500Y706670D01*
X1768500Y771670D02*
X1763420Y781830D01*
X1773580D01*
X1768500Y771670D01*
Y674170D02*
X1763420Y684330D01*
X1773580D01*
X1768500Y674170D01*
X664750Y730170D02*
X659670Y740330D01*
X669830D01*
X664750Y730170D01*
X496500Y676170D02*
X491420Y686330D01*
X501580D01*
X496500Y676170D01*
X492250Y783920D02*
X487170Y794080D01*
X497330D01*
X492250Y783920D01*
X356250Y708670D02*
X351170Y718830D01*
X361330D01*
X356250Y708670D01*
X174750Y758420D02*
X169670Y768580D01*
X179830D01*
X174750Y758420D01*
X177250Y477170D02*
X172170Y487330D01*
X182330D01*
X177250Y477170D01*
Y377670D02*
X172170Y387830D01*
X182330D01*
X177250Y377670D01*
X354500Y425920D02*
X349420Y436080D01*
X359580D01*
X354500Y425920D01*
X482000Y356670D02*
X476920Y366830D01*
X487080D01*
X482000Y356670D01*
X481000Y450670D02*
X475920Y460830D01*
X486080D01*
X481000Y450670D01*
X650750Y395420D02*
X645670Y405580D01*
X655830D01*
X650750Y395420D01*
X1765500Y428920D02*
X1760420Y439080D01*
X1770580D01*
X1765500Y428920D01*
X969250Y399420D02*
X964170Y409580D01*
X974330D01*
X969250Y399420D01*
X1111000Y329920D02*
X1105920Y340080D01*
X1116080D01*
X1111000Y329920D01*
X1112750Y423170D02*
X1107670Y433330D01*
X1117830D01*
X1112750Y423170D01*
X61000Y1277670D02*
X55920Y1287830D01*
X66080D01*
X61000Y1277670D01*
Y1169892D02*
X55920Y1180052D01*
X66080D01*
X61000Y1169892D01*
Y1063114D02*
X55920Y1073274D01*
X66080D01*
X61000Y1063114D01*
Y956337D02*
X55920Y966497D01*
X66080D01*
X61000Y956337D01*
Y849559D02*
X55920Y859719D01*
X66080D01*
X61000Y849559D01*
Y742781D02*
X55920Y752941D01*
X66080D01*
X61000Y742781D01*
Y636003D02*
X55920Y646163D01*
X66080D01*
X61000Y636003D01*
Y529226D02*
X55920Y539385D01*
X66080D01*
X61000Y529226D01*
Y422448D02*
X55920Y432608D01*
X66080D01*
X61000Y422448D01*
Y315670D02*
X55920Y325830D01*
X66080D01*
X61000Y315670D01*
X2080000Y1268670D02*
X2074920Y1278830D01*
X2085080D01*
X2080000Y1268670D01*
Y1163095D02*
X2074920Y1173255D01*
X2085080D01*
X2080000Y1163095D01*
Y1057520D02*
X2074920Y1067680D01*
X2085080D01*
X2080000Y1057520D01*
Y951945D02*
X2074920Y962105D01*
X2085080D01*
X2080000Y951945D01*
Y846370D02*
X2074920Y856530D01*
X2085080D01*
X2080000Y846370D01*
Y740795D02*
X2074920Y750955D01*
X2085080D01*
X2080000Y740795D01*
Y635220D02*
X2074920Y645380D01*
X2085080D01*
X2080000Y635220D01*
Y529645D02*
X2074920Y539805D01*
X2085080D01*
X2080000Y529645D01*
Y424070D02*
X2074920Y434230D01*
X2085080D01*
X2080000Y424070D01*
Y325170D02*
X2074920Y335330D01*
X2085080D01*
X2080000Y325170D01*
X896750Y82420D02*
X891670Y92580D01*
X901830D01*
X896750Y82420D01*
X1244250Y202420D02*
X1239170Y212580D01*
X1249330D01*
X1244250Y202420D01*
X1244250Y82420D02*
X1239170Y92580D01*
X1249330D01*
X1244250Y82420D01*
X201750D02*
X196670Y92580D01*
X206830D01*
X201750Y82420D01*
Y202420D02*
X196670Y212580D01*
X206830D01*
X201750Y202420D01*
X1291000Y380170D02*
X1285920Y390330D01*
X1296080D01*
X1291000Y380170D01*
X1591750Y202420D02*
X1586670Y212580D01*
X1596830D01*
X1591750Y202420D01*
X510250Y1200920D02*
X505170Y1211080D01*
X515330D01*
X510250Y1200920D01*
X1369500Y1250920D02*
X1364420Y1261080D01*
X1374580D01*
X1369500Y1250920D01*
X866250Y955420D02*
X861170Y965580D01*
X871330D01*
X866250Y955420D01*
X1053500Y1006920D02*
X1048420Y1017080D01*
X1058580D01*
X1053500Y1006920D01*
X1187500Y944670D02*
X1182420Y954830D01*
X1192580D01*
X1187500Y944670D01*
X1504000Y1170170D02*
X1498920Y1180330D01*
X1509080D01*
X1504000Y1170170D01*
X1645500Y1009920D02*
X1640420Y1020080D01*
X1650580D01*
X1645500Y1009920D01*
X1807000Y1013920D02*
X1801920Y1024080D01*
X1812080D01*
X1807000Y1013920D01*
X1945500Y718920D02*
X1940420Y729080D01*
X1950580D01*
X1945500Y718920D01*
X1430750Y453170D02*
X1425670Y463330D01*
X1435830D01*
X1430750Y453170D01*
Y353670D02*
X1425670Y363830D01*
X1435830D01*
X1430750Y353670D01*
X1612500Y396920D02*
X1607420Y407080D01*
X1617580D01*
X1612500Y396920D01*
X1765500Y336670D02*
X1760420Y346830D01*
X1770580D01*
X1765500Y336670D01*
X1945500Y387170D02*
X1940420Y397330D01*
X1950580D01*
X1945500Y387170D01*
X1591750Y82420D02*
X1586670Y92580D01*
X1596830D01*
X1591750Y82420D01*
X896750Y202420D02*
X891670Y212580D01*
X901830D01*
X896750Y202420D01*
X44920Y1447420D02*
X47460D01*
X50000Y1449960D01*
X52540Y1447420D01*
X55080D01*
Y1449960D01*
X52540Y1452500D01*
X55080Y1455040D01*
Y1457580D01*
X52540D01*
X50000Y1455040D01*
X47460Y1457580D01*
X44920D01*
Y1455040D01*
X47460Y1452500D01*
X44920Y1449960D01*
Y1447420D01*
X2084920D02*
X2087460D01*
X2090000Y1449960D01*
X2092540Y1447420D01*
X2095080D01*
Y1449960D01*
X2092540Y1452500D01*
X2095080Y1455040D01*
Y1457580D01*
X2092540D01*
X2090000Y1455040D01*
X2087460Y1457580D01*
X2084920D01*
Y1455040D01*
X2087460Y1452500D01*
X2084920Y1449960D01*
Y1447420D01*
Y44920D02*
X2087460D01*
X2090000Y47460D01*
X2092540Y44920D01*
X2095080D01*
Y47460D01*
X2092540Y50000D01*
X2095080Y52540D01*
Y55080D01*
X2092540D01*
X2090000Y52540D01*
X2087460Y55080D01*
X2084920D01*
Y52540D01*
X2087460Y50000D01*
X2084920Y47460D01*
Y44920D01*
X44920D02*
X47460D01*
X50000Y47460D01*
X52540Y44920D01*
X55080D01*
Y47460D01*
X52540Y50000D01*
X55080Y52540D01*
Y55080D01*
X52540D01*
X50000Y52540D01*
X47460Y55080D01*
X44920D01*
Y52540D01*
X47460Y50000D01*
X44920Y47460D01*
Y44920D01*
X279510Y1104210D02*
Y1101670D01*
X284590D01*
Y1104210D01*
X287130D01*
Y1109290D01*
X284590D01*
Y1111830D01*
X279510D01*
Y1109290D01*
X276970D01*
Y1104210D01*
X279510D01*
X304910D02*
Y1101670D01*
X309990D01*
Y1104210D01*
X312530D01*
Y1109290D01*
X309990D01*
Y1111830D01*
X304910D01*
Y1109290D01*
X302370D01*
Y1104210D01*
X304910D01*
X330310D02*
Y1101670D01*
X335390D01*
Y1104210D01*
X337930D01*
Y1109290D01*
X335390D01*
Y1111830D01*
X330310D01*
Y1109290D01*
X327770D01*
Y1104210D01*
X330310D01*
X355710D02*
Y1101670D01*
X360790D01*
Y1104210D01*
X363330D01*
Y1109290D01*
X360790D01*
Y1111830D01*
X355710D01*
Y1109290D01*
X353170D01*
Y1104210D01*
X355710D01*
X381110D02*
Y1101670D01*
X386190D01*
Y1104210D01*
X388730D01*
Y1109290D01*
X386190D01*
Y1111830D01*
X381110D01*
Y1109290D01*
X378570D01*
Y1104210D01*
X381110D01*
X406510D02*
Y1101670D01*
X411590D01*
Y1104210D01*
X414130D01*
Y1109290D01*
X411590D01*
Y1111830D01*
X406510D01*
Y1109290D01*
X403970D01*
Y1104210D01*
X406510D01*
X431910D02*
Y1101670D01*
X436990D01*
Y1104210D01*
X439530D01*
Y1109290D01*
X436990D01*
Y1111830D01*
X431910D01*
Y1109290D01*
X429370D01*
Y1104210D01*
X431910D01*
X279510Y1183910D02*
Y1181370D01*
X284590D01*
Y1183910D01*
X287130D01*
Y1188990D01*
X284590D01*
Y1191530D01*
X279510D01*
Y1188990D01*
X276970D01*
Y1183910D01*
X279510D01*
X304910D02*
Y1181370D01*
X309990D01*
Y1183910D01*
X312530D01*
Y1188990D01*
X309990D01*
Y1191530D01*
X304910D01*
Y1188990D01*
X302370D01*
Y1183910D01*
X304910D01*
X330310D02*
Y1181370D01*
X335390D01*
Y1183910D01*
X337930D01*
Y1188990D01*
X335390D01*
Y1191530D01*
X330310D01*
Y1188990D01*
X327770D01*
Y1183910D01*
X330310D01*
X355710D02*
Y1181370D01*
X360790D01*
Y1183910D01*
X363330D01*
Y1188990D01*
X360790D01*
Y1191530D01*
X355710D01*
Y1188990D01*
X353170D01*
Y1183910D01*
X355710D01*
X381110D02*
Y1181370D01*
X386190D01*
Y1183910D01*
X388730D01*
Y1188990D01*
X386190D01*
Y1191530D01*
X381110D01*
Y1188990D01*
X378570D01*
Y1183910D01*
X381110D01*
X406510D02*
Y1181370D01*
X411590D01*
Y1183910D01*
X414130D01*
Y1188990D01*
X411590D01*
Y1191530D01*
X406510D01*
Y1188990D01*
X403970D01*
Y1183910D01*
X406510D01*
X431910D02*
Y1181370D01*
X436990D01*
Y1183910D01*
X439530D01*
Y1188990D01*
X436990D01*
Y1191530D01*
X431910D01*
Y1188990D01*
X429370D01*
Y1183910D01*
X431910D01*
X1111010D02*
Y1181370D01*
X1116090D01*
Y1183910D01*
X1118630D01*
Y1188990D01*
X1116090D01*
Y1191530D01*
X1111010D01*
Y1188990D01*
X1108470D01*
Y1183910D01*
X1111010D01*
X1085610D02*
Y1181370D01*
X1090690D01*
Y1183910D01*
X1093230D01*
Y1188990D01*
X1090690D01*
Y1191530D01*
X1085610D01*
Y1188990D01*
X1083070D01*
Y1183910D01*
X1085610D01*
X1060210D02*
Y1181370D01*
X1065290D01*
Y1183910D01*
X1067830D01*
Y1188990D01*
X1065290D01*
Y1191530D01*
X1060210D01*
Y1188990D01*
X1057670D01*
Y1183910D01*
X1060210D01*
X1034810D02*
Y1181370D01*
X1039890D01*
Y1183910D01*
X1042430D01*
Y1188990D01*
X1039890D01*
Y1191530D01*
X1034810D01*
Y1188990D01*
X1032270D01*
Y1183910D01*
X1034810D01*
X1009410D02*
Y1181370D01*
X1014490D01*
Y1183910D01*
X1017030D01*
Y1188990D01*
X1014490D01*
Y1191530D01*
X1009410D01*
Y1188990D01*
X1006870D01*
Y1183910D01*
X1009410D01*
X984010D02*
Y1181370D01*
X989090D01*
Y1183910D01*
X991630D01*
Y1188990D01*
X989090D01*
Y1191530D01*
X984010D01*
Y1188990D01*
X981470D01*
Y1183910D01*
X984010D01*
X958610D02*
Y1181370D01*
X963690D01*
Y1183910D01*
X966230D01*
Y1188990D01*
X963690D01*
Y1191530D01*
X958610D01*
Y1188990D01*
X956070D01*
Y1183910D01*
X958610D01*
X1111010Y1104210D02*
Y1101670D01*
X1116090D01*
Y1104210D01*
X1118630D01*
Y1109290D01*
X1116090D01*
Y1111830D01*
X1111010D01*
Y1109290D01*
X1108470D01*
Y1104210D01*
X1111010D01*
X1085610D02*
Y1101670D01*
X1090690D01*
Y1104210D01*
X1093230D01*
Y1109290D01*
X1090690D01*
Y1111830D01*
X1085610D01*
Y1109290D01*
X1083070D01*
Y1104210D01*
X1085610D01*
X1060210D02*
Y1101670D01*
X1065290D01*
Y1104210D01*
X1067830D01*
Y1109290D01*
X1065290D01*
Y1111830D01*
X1060210D01*
Y1109290D01*
X1057670D01*
Y1104210D01*
X1060210D01*
X1034810D02*
Y1101670D01*
X1039890D01*
Y1104210D01*
X1042430D01*
Y1109290D01*
X1039890D01*
Y1111830D01*
X1034810D01*
Y1109290D01*
X1032270D01*
Y1104210D01*
X1034810D01*
X1009410D02*
Y1101670D01*
X1014490D01*
Y1104210D01*
X1017030D01*
Y1109290D01*
X1014490D01*
Y1111830D01*
X1009410D01*
Y1109290D01*
X1006870D01*
Y1104210D01*
X1009410D01*
X984010D02*
Y1101670D01*
X989090D01*
Y1104210D01*
X991630D01*
Y1109290D01*
X989090D01*
Y1111830D01*
X984010D01*
Y1109290D01*
X981470D01*
Y1104210D01*
X984010D01*
X958610D02*
Y1101670D01*
X963690D01*
Y1104210D01*
X966230D01*
Y1109290D01*
X963690D01*
Y1111830D01*
X958610D01*
Y1109290D01*
X956070D01*
Y1104210D01*
X958610D01*
X1601860Y1099460D02*
Y1096920D01*
X1606940D01*
Y1099460D01*
X1609480D01*
Y1104540D01*
X1606940D01*
Y1107080D01*
X1601860D01*
Y1104540D01*
X1599320D01*
Y1099460D01*
X1601860D01*
X1627260D02*
Y1096920D01*
X1632340D01*
Y1099460D01*
X1634880D01*
Y1104540D01*
X1632340D01*
Y1107080D01*
X1627260D01*
Y1104540D01*
X1624720D01*
Y1099460D01*
X1627260D01*
X1652660D02*
Y1096920D01*
X1657740D01*
Y1099460D01*
X1660280D01*
Y1104540D01*
X1657740D01*
Y1107080D01*
X1652660D01*
Y1104540D01*
X1650120D01*
Y1099460D01*
X1652660D01*
X1678060D02*
Y1096920D01*
X1683140D01*
Y1099460D01*
X1685680D01*
Y1104540D01*
X1683140D01*
Y1107080D01*
X1678060D01*
Y1104540D01*
X1675520D01*
Y1099460D01*
X1678060D01*
X1703460D02*
Y1096920D01*
X1708540D01*
Y1099460D01*
X1711080D01*
Y1104540D01*
X1708540D01*
Y1107080D01*
X1703460D01*
Y1104540D01*
X1700920D01*
Y1099460D01*
X1703460D01*
X1728860D02*
Y1096920D01*
X1733940D01*
Y1099460D01*
X1736480D01*
Y1104540D01*
X1733940D01*
Y1107080D01*
X1728860D01*
Y1104540D01*
X1726320D01*
Y1099460D01*
X1728860D01*
X1754260D02*
Y1096920D01*
X1759340D01*
Y1099460D01*
X1761880D01*
Y1104540D01*
X1759340D01*
Y1107080D01*
X1754260D01*
Y1104540D01*
X1751720D01*
Y1099460D01*
X1754260D01*
X1601860Y1179160D02*
Y1176620D01*
X1606940D01*
Y1179160D01*
X1609480D01*
Y1184240D01*
X1606940D01*
Y1186780D01*
X1601860D01*
Y1184240D01*
X1599320D01*
Y1179160D01*
X1601860D01*
X1627260D02*
Y1176620D01*
X1632340D01*
Y1179160D01*
X1634880D01*
Y1184240D01*
X1632340D01*
Y1186780D01*
X1627260D01*
Y1184240D01*
X1624720D01*
Y1179160D01*
X1627260D01*
X1652660D02*
Y1176620D01*
X1657740D01*
Y1179160D01*
X1660280D01*
Y1184240D01*
X1657740D01*
Y1186780D01*
X1652660D01*
Y1184240D01*
X1650120D01*
Y1179160D01*
X1652660D01*
X1678060D02*
Y1176620D01*
X1683140D01*
Y1179160D01*
X1685680D01*
Y1184240D01*
X1683140D01*
Y1186780D01*
X1678060D01*
Y1184240D01*
X1675520D01*
Y1179160D01*
X1678060D01*
X1703460D02*
Y1176620D01*
X1708540D01*
Y1179160D01*
X1711080D01*
Y1184240D01*
X1708540D01*
Y1186780D01*
X1703460D01*
Y1184240D01*
X1700920D01*
Y1179160D01*
X1703460D01*
X1728860D02*
Y1176620D01*
X1733940D01*
Y1179160D01*
X1736480D01*
Y1184240D01*
X1733940D01*
Y1186780D01*
X1728860D01*
Y1184240D01*
X1726320D01*
Y1179160D01*
X1728860D01*
X1754260D02*
Y1176620D01*
X1759340D01*
Y1179160D01*
X1761880D01*
Y1184240D01*
X1759340D01*
Y1186780D01*
X1754260D01*
Y1184240D01*
X1751720D01*
Y1179160D01*
X1754260D01*
X431910Y593910D02*
Y591370D01*
X436990D01*
Y593910D01*
X439530D01*
Y598990D01*
X436990D01*
Y601530D01*
X431910D01*
Y598990D01*
X429370D01*
Y593910D01*
X431910D01*
X406510D02*
Y591370D01*
X411590D01*
Y593910D01*
X414130D01*
Y598990D01*
X411590D01*
Y601530D01*
X406510D01*
Y598990D01*
X403970D01*
Y593910D01*
X406510D01*
X381110D02*
Y591370D01*
X386190D01*
Y593910D01*
X388730D01*
Y598990D01*
X386190D01*
Y601530D01*
X381110D01*
Y598990D01*
X378570D01*
Y593910D01*
X381110D01*
X355710D02*
Y591370D01*
X360790D01*
Y593910D01*
X363330D01*
Y598990D01*
X360790D01*
Y601530D01*
X355710D01*
Y598990D01*
X353170D01*
Y593910D01*
X355710D01*
X330310D02*
Y591370D01*
X335390D01*
Y593910D01*
X337930D01*
Y598990D01*
X335390D01*
Y601530D01*
X330310D01*
Y598990D01*
X327770D01*
Y593910D01*
X330310D01*
X304910D02*
Y591370D01*
X309990D01*
Y593910D01*
X312530D01*
Y598990D01*
X309990D01*
Y601530D01*
X304910D01*
Y598990D01*
X302370D01*
Y593910D01*
X304910D01*
X279510D02*
Y591370D01*
X284590D01*
Y593910D01*
X287130D01*
Y598990D01*
X284590D01*
Y601530D01*
X279510D01*
Y598990D01*
X276970D01*
Y593910D01*
X279510D01*
X431910Y514210D02*
Y511670D01*
X436990D01*
Y514210D01*
X439530D01*
Y519290D01*
X436990D01*
Y521830D01*
X431910D01*
Y519290D01*
X429370D01*
Y514210D01*
X431910D01*
X406510D02*
Y511670D01*
X411590D01*
Y514210D01*
X414130D01*
Y519290D01*
X411590D01*
Y521830D01*
X406510D01*
Y519290D01*
X403970D01*
Y514210D01*
X406510D01*
X381110D02*
Y511670D01*
X386190D01*
Y514210D01*
X388730D01*
Y519290D01*
X386190D01*
Y521830D01*
X381110D01*
Y519290D01*
X378570D01*
Y514210D01*
X381110D01*
X355710D02*
Y511670D01*
X360790D01*
Y514210D01*
X363330D01*
Y519290D01*
X360790D01*
Y521830D01*
X355710D01*
Y519290D01*
X353170D01*
Y514210D01*
X355710D01*
X330310D02*
Y511670D01*
X335390D01*
Y514210D01*
X337930D01*
Y519290D01*
X335390D01*
Y521830D01*
X330310D01*
Y519290D01*
X327770D01*
Y514210D01*
X330310D01*
X304910D02*
Y511670D01*
X309990D01*
Y514210D01*
X312530D01*
Y519290D01*
X309990D01*
Y521830D01*
X304910D01*
Y519290D01*
X302370D01*
Y514210D01*
X304910D01*
X279510D02*
Y511670D01*
X284590D01*
Y514210D01*
X287130D01*
Y519290D01*
X284590D01*
Y521830D01*
X279510D01*
Y519290D01*
X276970D01*
Y514210D01*
X279510D01*
X958610D02*
Y511670D01*
X963690D01*
Y514210D01*
X966230D01*
Y519290D01*
X963690D01*
Y521830D01*
X958610D01*
Y519290D01*
X956070D01*
Y514210D01*
X958610D01*
X984010D02*
Y511670D01*
X989090D01*
Y514210D01*
X991630D01*
Y519290D01*
X989090D01*
Y521830D01*
X984010D01*
Y519290D01*
X981470D01*
Y514210D01*
X984010D01*
X1009410D02*
Y511670D01*
X1014490D01*
Y514210D01*
X1017030D01*
Y519290D01*
X1014490D01*
Y521830D01*
X1009410D01*
Y519290D01*
X1006870D01*
Y514210D01*
X1009410D01*
X1034810D02*
Y511670D01*
X1039890D01*
Y514210D01*
X1042430D01*
Y519290D01*
X1039890D01*
Y521830D01*
X1034810D01*
Y519290D01*
X1032270D01*
Y514210D01*
X1034810D01*
X1060210D02*
Y511670D01*
X1065290D01*
Y514210D01*
X1067830D01*
Y519290D01*
X1065290D01*
Y521830D01*
X1060210D01*
Y519290D01*
X1057670D01*
Y514210D01*
X1060210D01*
X1085610D02*
Y511670D01*
X1090690D01*
Y514210D01*
X1093230D01*
Y519290D01*
X1090690D01*
Y521830D01*
X1085610D01*
Y519290D01*
X1083070D01*
Y514210D01*
X1085610D01*
X1111010D02*
Y511670D01*
X1116090D01*
Y514210D01*
X1118630D01*
Y519290D01*
X1116090D01*
Y521830D01*
X1111010D01*
Y519290D01*
X1108470D01*
Y514210D01*
X1111010D01*
X958610Y593910D02*
Y591370D01*
X963690D01*
Y593910D01*
X966230D01*
Y598990D01*
X963690D01*
Y601530D01*
X958610D01*
Y598990D01*
X956070D01*
Y593910D01*
X958610D01*
X984010D02*
Y591370D01*
X989090D01*
Y593910D01*
X991630D01*
Y598990D01*
X989090D01*
Y601530D01*
X984010D01*
Y598990D01*
X981470D01*
Y593910D01*
X984010D01*
X1009410D02*
Y591370D01*
X1014490D01*
Y593910D01*
X1017030D01*
Y598990D01*
X1014490D01*
Y601530D01*
X1009410D01*
Y598990D01*
X1006870D01*
Y593910D01*
X1009410D01*
X1034810D02*
Y591370D01*
X1039890D01*
Y593910D01*
X1042430D01*
Y598990D01*
X1039890D01*
Y601530D01*
X1034810D01*
Y598990D01*
X1032270D01*
Y593910D01*
X1034810D01*
X1060210D02*
Y591370D01*
X1065290D01*
Y593910D01*
X1067830D01*
Y598990D01*
X1065290D01*
Y601530D01*
X1060210D01*
Y598990D01*
X1057670D01*
Y593910D01*
X1060210D01*
X1085610D02*
Y591370D01*
X1090690D01*
Y593910D01*
X1093230D01*
Y598990D01*
X1090690D01*
Y601530D01*
X1085610D01*
Y598990D01*
X1083070D01*
Y593910D01*
X1085610D01*
X1111010D02*
Y591370D01*
X1116090D01*
Y593910D01*
X1118630D01*
Y598990D01*
X1116090D01*
Y601530D01*
X1111010D01*
Y598990D01*
X1108470D01*
Y593910D01*
X1111010D01*
X1756760Y602410D02*
Y599870D01*
X1761840D01*
Y602410D01*
X1764380D01*
Y607490D01*
X1761840D01*
Y610030D01*
X1756760D01*
Y607490D01*
X1754220D01*
Y602410D01*
X1756760D01*
X1731360D02*
Y599870D01*
X1736440D01*
Y602410D01*
X1738980D01*
Y607490D01*
X1736440D01*
Y610030D01*
X1731360D01*
Y607490D01*
X1728820D01*
Y602410D01*
X1731360D01*
X1705960D02*
Y599870D01*
X1711040D01*
Y602410D01*
X1713580D01*
Y607490D01*
X1711040D01*
Y610030D01*
X1705960D01*
Y607490D01*
X1703420D01*
Y602410D01*
X1705960D01*
X1680560D02*
Y599870D01*
X1685640D01*
Y602410D01*
X1688180D01*
Y607490D01*
X1685640D01*
Y610030D01*
X1680560D01*
Y607490D01*
X1678020D01*
Y602410D01*
X1680560D01*
X1655160D02*
Y599870D01*
X1660240D01*
Y602410D01*
X1662780D01*
Y607490D01*
X1660240D01*
Y610030D01*
X1655160D01*
Y607490D01*
X1652620D01*
Y602410D01*
X1655160D01*
X1629760D02*
Y599870D01*
X1634840D01*
Y602410D01*
X1637380D01*
Y607490D01*
X1634840D01*
Y610030D01*
X1629760D01*
Y607490D01*
X1627220D01*
Y602410D01*
X1629760D01*
X1604360D02*
Y599870D01*
X1609440D01*
Y602410D01*
X1611980D01*
Y607490D01*
X1609440D01*
Y610030D01*
X1604360D01*
Y607490D01*
X1601820D01*
Y602410D01*
X1604360D01*
X1756760Y522710D02*
Y520170D01*
X1761840D01*
Y522710D01*
X1764380D01*
Y527790D01*
X1761840D01*
Y530330D01*
X1756760D01*
Y527790D01*
X1754220D01*
Y522710D01*
X1756760D01*
X1731360D02*
Y520170D01*
X1736440D01*
Y522710D01*
X1738980D01*
Y527790D01*
X1736440D01*
Y530330D01*
X1731360D01*
Y527790D01*
X1728820D01*
Y522710D01*
X1731360D01*
X1705960D02*
Y520170D01*
X1711040D01*
Y522710D01*
X1713580D01*
Y527790D01*
X1711040D01*
Y530330D01*
X1705960D01*
Y527790D01*
X1703420D01*
Y522710D01*
X1705960D01*
X1680560D02*
Y520170D01*
X1685640D01*
Y522710D01*
X1688180D01*
Y527790D01*
X1685640D01*
Y530330D01*
X1680560D01*
Y527790D01*
X1678020D01*
Y522710D01*
X1680560D01*
X1655160D02*
Y520170D01*
X1660240D01*
Y522710D01*
X1662780D01*
Y527790D01*
X1660240D01*
Y530330D01*
X1655160D01*
Y527790D01*
X1652620D01*
Y522710D01*
X1655160D01*
X1629760D02*
Y520170D01*
X1634840D01*
Y522710D01*
X1637380D01*
Y527790D01*
X1634840D01*
Y530330D01*
X1629760D01*
Y527790D01*
X1627220D01*
Y522710D01*
X1629760D01*
X1604360D02*
Y520170D01*
X1609440D01*
Y522710D01*
X1611980D01*
Y527790D01*
X1609440D01*
Y530330D01*
X1604360D01*
Y527790D01*
X1601820D01*
Y522710D01*
X1604360D01*
X1895920Y264670D02*
Y274830D01*
X1906080D01*
Y264670D01*
X1895920D01*
Y174670D02*
Y184830D01*
X1906080D01*
Y174670D01*
X1895920D01*
X959670Y82420D02*
Y92580D01*
X969830D01*
Y82420D01*
X959670D01*
X1049670D02*
Y92580D01*
X1059830D01*
Y82420D01*
X1049670D01*
X1397170Y202420D02*
Y212580D01*
X1407330D01*
Y202420D01*
X1397170D01*
X1307170D02*
Y212580D01*
X1317330D01*
Y202420D01*
X1307170D01*
Y82420D02*
Y92580D01*
X1317330D01*
Y82420D01*
X1307170D01*
X1397170D02*
Y92580D01*
X1407330D01*
Y82420D01*
X1397170D01*
X354670D02*
Y92580D01*
X364830D01*
Y82420D01*
X354670D01*
X264670D02*
Y92580D01*
X274830D01*
Y82420D01*
X264670D01*
X264670Y202420D02*
Y212580D01*
X274830D01*
Y202420D01*
X264670D01*
X354670D02*
Y212580D01*
X364830D01*
Y202420D01*
X354670D01*
X1744670D02*
Y212580D01*
X1754830D01*
Y202420D01*
X1744670D01*
X1654670D02*
Y212580D01*
X1664830D01*
Y202420D01*
X1654670D01*
Y82420D02*
Y92580D01*
X1664830D01*
Y82420D01*
X1654670D01*
X1744670D02*
Y92580D01*
X1754830D01*
Y82420D01*
X1744670D01*
X612170D02*
Y92580D01*
X622330D01*
Y82420D01*
X612170D01*
X702170D02*
Y92580D01*
X712330D01*
Y82420D01*
X702170D01*
X414670D02*
X417210Y87500D01*
X414670Y92580D01*
X419750Y90040D01*
X424830Y92580D01*
X422290Y87500D01*
X424830Y82420D01*
X419750Y84960D01*
X414670Y82420D01*
X389270D02*
X391810Y87500D01*
X389270Y92580D01*
X394350Y90040D01*
X399430Y92580D01*
X396890Y87500D01*
X399430Y82420D01*
X394350Y84960D01*
X389270Y82420D01*
X1431770D02*
X1434310Y87500D01*
X1431770Y92580D01*
X1436850Y90040D01*
X1441930Y92580D01*
X1439390Y87500D01*
X1441930Y82420D01*
X1436850Y84960D01*
X1431770Y82420D01*
X1457170D02*
X1459710Y87500D01*
X1457170Y92580D01*
X1462250Y90040D01*
X1467330Y92580D01*
X1464790Y87500D01*
X1467330Y82420D01*
X1462250Y84960D01*
X1457170Y82420D01*
X1084270D02*
X1086810Y87500D01*
X1084270Y92580D01*
X1089350Y90040D01*
X1094430Y92580D01*
X1091890Y87500D01*
X1094430Y82420D01*
X1089350Y84960D01*
X1084270Y82420D01*
X1109670D02*
X1112210Y87500D01*
X1109670Y92580D01*
X1114750Y90040D01*
X1119830Y92580D01*
X1117290Y87500D01*
X1119830Y82420D01*
X1114750Y84960D01*
X1109670Y82420D01*
X1779270D02*
X1781810Y87500D01*
X1779270Y92580D01*
X1784350Y90040D01*
X1789430Y92580D01*
X1786890Y87500D01*
X1789430Y82420D01*
X1784350Y84960D01*
X1779270Y82420D01*
X1804670D02*
X1807210Y87500D01*
X1804670Y92580D01*
X1809750Y90040D01*
X1814830Y92580D01*
X1812290Y87500D01*
X1814830Y82420D01*
X1809750Y84960D01*
X1804670Y82420D01*
X1964070Y216420D02*
X1966610Y221500D01*
X1964070Y226580D01*
X1969150Y224040D01*
X1974230Y226580D01*
X1971690Y221500D01*
X1974230Y216420D01*
X1969150Y218960D01*
X1964070Y216420D01*
X1938670D02*
X1941210Y221500D01*
X1938670Y226580D01*
X1943750Y224040D01*
X1948830Y226580D01*
X1946290Y221500D01*
X1948830Y216420D01*
X1943750Y218960D01*
X1938670Y216420D01*
X736770Y82420D02*
X739310Y87500D01*
X736770Y92580D01*
X741850Y90040D01*
X746930Y92580D01*
X744390Y87500D01*
X746930Y82420D01*
X741850Y84960D01*
X736770Y82420D01*
X762170D02*
X764710Y87500D01*
X762170Y92580D01*
X767250Y90040D01*
X772330Y92580D01*
X769790Y87500D01*
X772330Y82420D01*
X767250Y84960D01*
X762170Y82420D01*
M02*
